<svg xmlns="http://www.w3.org/2000/svg" width="1200" height="900" viewBox="0 0 1200 900" role="img" aria-label="Cockpit neon">
  <defs>
    <linearGradient id="bg" x1="0" x2="1" y1="0" y2="1"><stop stop-color="#061826"/><stop offset=".55" stop-color="#071018"/><stop offset="1" stop-color="#000"/></linearGradient>
    <radialGradient id="glow" cx=".5" cy=".35" r=".55"><stop stop-color="#67e8f9" stop-opacity=".75"/><stop offset=".45" stop-color="#0ea5e9" stop-opacity=".22"/><stop offset="1" stop-color="#000" stop-opacity="0"/></radialGradient>
    <filter id="noise"><feTurbulence type="fractalNoise" baseFrequency=".85" numOctaves="3" stitchTiles="stitch"/><feColorMatrix type="saturate" values="0"/><feComponentTransfer><feFuncA type="table" tableValues="0 .18"/></feComponentTransfer></filter>
  </defs>
  <rect width="1200" height="900" fill="url(#bg)"/>
  <rect width="1200" height="900" fill="url(#glow)"/>
  <g opacity=".45" stroke="#67e8f9" stroke-width="2">
    <path d="M0 180h1200M0 320h1200M0 520h1200M0 720h1200"/>
    <path d="M180 0v900M420 0v900M780 0v900M1020 0v900"/>
  </g>
  <g transform="translate(360 180)">
    <path d="M250 0c116 0 210 94 210 210v170H40V210C40 94 134 0 250 0Z" fill="#071018" stroke="#38bdf8" stroke-width="10"/>
    <rect x="105" y="245" width="290" height="54" rx="27" fill="#a5f3fc"/>
    <rect x="125" y="263" width="250" height="18" rx="9" fill="#ecfeff"/>
    <path d="M60 410h380l70 170H-10l70-170Z" fill="#020617" stroke="#0ea5e9" stroke-width="8"/>
  </g>
  <g fill="#67e8f9" opacity=".65">
    <circle cx="210" cy="230" r="42"/><circle cx="1010" cy="360" r="26"/><circle cx="900" cy="150" r="18"/>
  </g>
  <rect width="1200" height="900" filter="url(#noise)" opacity=".7"/>
</svg>
