<svg xmlns="http://www.w3.org/2000/svg" width="1200" height="900" viewBox="0 0 1200 900" role="img" aria-label="Metas skyline">
  <defs>
    <linearGradient id="sky" x1="0" x2="1" y1="0" y2="1"><stop stop-color="#401018"/><stop offset=".45" stop-color="#111827"/><stop offset="1" stop-color="#020202"/></linearGradient>
    <radialGradient id="sun" cx=".72" cy=".2" r=".4"><stop stop-color="#fb7185" stop-opacity=".85"/><stop offset=".6" stop-color="#f97316" stop-opacity=".22"/><stop offset="1" stop-color="#000" stop-opacity="0"/></radialGradient>
    <filter id="noise"><feTurbulence type="fractalNoise" baseFrequency=".8" numOctaves="3"/><feComponentTransfer><feFuncA type="table" tableValues="0 .18"/></feComponentTransfer></filter>
  </defs>
  <rect width="1200" height="900" fill="url(#sky)"/>
  <rect width="1200" height="900" fill="url(#sun)"/>
  <g transform="translate(170 510)" fill="#050507" stroke="#fb7185" stroke-opacity=".22" stroke-width="4">
    <rect width="150" height="260"/><rect x="170" y="-70" width="190" height="330"/><rect x="390" y="-130" width="160" height="390"/><rect x="580" y="-30" width="230" height="290"/><rect x="840" y="-95" width="150" height="355"/>
  </g>
  <g fill="#67e8f9" opacity=".65">
    <rect x="220" y="565" width="35" height="18"/><rect x="420" y="500" width="42" height="18"/><rect x="620" y="440" width="34" height="18"/><rect x="815" y="540" width="44" height="18"/>
  </g>
  <g transform="translate(444 165)">
    <circle cx="156" cy="156" r="120" fill="none" stroke="#f9a8d4" stroke-width="14"/>
    <circle cx="156" cy="156" r="70" fill="none" stroke="#fb7185" stroke-width="12"/>
    <circle cx="156" cy="156" r="24" fill="#fff"/>
    <path d="M156 20v272M20 156h272" stroke="#f9a8d4" stroke-width="8" opacity=".65"/>
  </g>
  <rect width="1200" height="900" filter="url(#noise)" opacity=".75"/>
</svg>
